<?xml version="1.0" encoding="UTF-8" standalone="no"?>
<svg
   xmlns:dc="http://purl.org/dc/elements/1.1/"
   xmlns:cc="http://creativecommons.org/ns#"
   xmlns:rdf="http://www.w3.org/1999/02/22-rdf-syntax-ns#"
   xmlns:svg="http://www.w3.org/2000/svg"
   xmlns="http://www.w3.org/2000/svg"
   xmlns:xlink="http://www.w3.org/1999/xlink"
   xmlns:sodipodi="http://sodipodi.sourceforge.net/DTD/sodipodi-0.dtd"
   xmlns:inkscape="http://www.inkscape.org/namespaces/inkscape"
   width="83.567291mm"
   height="83.567291mm"
   viewBox="0 0 83.567291 83.567291"
   version="1.1"
   id="svg893"
   inkscape:version="1.0.2 (e86c870879, 2021-01-15)"
   sodipodi:docname="logo.svg">
  <defs
     id="defs887">
    <linearGradient
       inkscape:collect="always"
       id="linearGradient1552">
      <stop
         style="stop-color:#003380;stop-opacity:1"
         offset="0"
         id="stop1548" />
      <stop
         style="stop-color:#1f384a;stop-opacity:1"
         offset="0.5"
         id="stop1556" />
      <stop
         style="stop-color:#568c33;stop-opacity:1"
         offset="1"
         id="stop1550" />
    </linearGradient>
    <linearGradient
       inkscape:collect="always"
       id="linearGradient1524">
      <stop
         style="stop-color:#5299bc;stop-opacity:1"
         offset="0"
         id="stop1520" />
      <stop
         style="stop-color:#d9e5f3;stop-opacity:0.74355835"
         offset="1"
         id="stop1522" />
    </linearGradient>
    <linearGradient
       inkscape:collect="always"
       id="linearGradient1474">
      <stop
         style="stop-color:#5299bc;stop-opacity:1"
         offset="0"
         id="stop1470" />
      <stop
         style="stop-color:#75a8d2;stop-opacity:1"
         offset="1"
         id="stop1472" />
    </linearGradient>
    <radialGradient
       inkscape:collect="always"
       xlink:href="#linearGradient1474"
       id="radialGradient1480"
       gradientUnits="userSpaceOnUse"
       cx="121.17694"
       cy="145.31837"
       fx="121.17694"
       fy="145.31837"
       r="35"
       gradientTransform="matrix(1.2327499,0,0,1,-26.175279,0)" />
    <linearGradient
       inkscape:collect="always"
       xlink:href="#linearGradient1524"
       id="linearGradient1518"
       x1="116.72601"
       y1="133.82153"
       x2="75.13797"
       y2="92.915627"
       gradientUnits="userSpaceOnUse"
       gradientTransform="translate(-0.52916667,-0.87994704)" />
    <linearGradient
       inkscape:collect="always"
       xlink:href="#linearGradient1552"
       id="linearGradient1554"
       x1="90.743103"
       y1="115.53479"
       x2="141.64423"
       y2="172.4064"
       gradientUnits="userSpaceOnUse"
       gradientTransform="matrix(0.93890359,0,0,0.93890359,6.8709606,8.5639403)" />
    <filter
       inkscape:collect="always"
       style="color-interpolation-filters:sRGB"
       id="filter1691"
       x="-0.096909247"
       width="1.1938184"
       y="-0.096909247"
       height="1.1938184">
      <feGaussianBlur
         inkscape:collect="always"
         stdDeviation="2.8265198"
         id="feGaussianBlur1693" />
    </filter>
  </defs>
  <sodipodi:namedview
     id="base"
     pagecolor="#ffffff"
     bordercolor="#666666"
     borderopacity="1.0"
     inkscape:pageopacity="0.0"
     inkscape:pageshadow="2"
     inkscape:zoom="1.1408896"
     inkscape:cx="135.29541"
     inkscape:cy="268.4875"
     inkscape:document-units="mm"
     inkscape:current-layer="layer1"
     inkscape:document-rotation="0"
     showgrid="false"
     inkscape:window-width="1920"
     inkscape:window-height="1016"
     inkscape:window-x="0"
     inkscape:window-y="27"
     inkscape:window-maximized="1"
     showborder="false"
     fit-margin-top="0"
     fit-margin-left="0"
     fit-margin-right="0"
     fit-margin-bottom="0" />
  <metadata
     id="metadata890">
    <rdf:RDF>
      <cc:Work
         rdf:about="">
        <dc:format>image/svg+xml</dc:format>
        <dc:type
           rdf:resource="http://purl.org/dc/dcmitype/StillImage" />
        <dc:title></dc:title>
      </cc:Work>
    </rdf:RDF>
  </metadata>
  <g
     inkscape:label="Layer 1"
     inkscape:groupmode="layer"
     id="layer1"
     transform="translate(-70.677351,-98.38735)">
    <rect
       style="fill:#53676c;fill-opacity:1;stroke:none;stroke-width:4.33812;stroke-linejoin:round;filter:url(#filter1691)"
       id="rect1458-59"
       width="70"
       height="70"
       x="77.460999"
       y="105.171"
       ry="18.835045" />
    <rect
       style="fill:url(#radialGradient1480);fill-opacity:1;stroke:none;stroke-width:4.33812;stroke-linejoin:round"
       id="rect1458"
       width="70"
       height="70"
       x="77.460999"
       y="105.171"
       ry="18.835045" />
    <g
       aria-label="PR"
       id="text1546"
       style="font-style:normal;font-weight:normal;font-size:44.3433px;line-height:1.25;font-family:sans-serif;fill:url(#linearGradient1554);fill-opacity:1;stroke:none;stroke-width:1.10858">
      <path
         d="m 109.95561,134.49505 c 0,-4.12393 -3.2814,-8.11482 -8.38088,-8.11482 h -9.932899 c -0.66515,0 -1.818075,0 -1.818075,1.3303 0,1.37464 1.152925,1.37464 1.818075,1.37464 h 1.330299 v 21.68387 h -1.330299 c -0.709493,0 -1.818075,0 -1.818075,1.37464 0,1.3303 1.152925,1.3303 1.818075,1.3303 h 5.720286 c 0.665149,0 1.818075,0 1.818075,-1.3303 0,-1.37464 -1.152926,-1.37464 -1.818075,-1.37464 h -1.330299 v -8.15916 h 5.542912 c 5.14382,0 8.38088,-3.9909 8.38088,-8.11483 z m -3.05968,0 c 0,2.3502 -1.90677,5.40988 -6.16372,5.40988 h -4.700392 v -10.81976 h 4.700392 c 4.25695,0 6.16372,3.05969 6.16372,5.40988 z"
         style="font-style:normal;font-variant:normal;font-weight:normal;font-stretch:normal;font-family:'Latin Modern Mono';-inkscape-font-specification:'Latin Modern Mono';fill:url(#linearGradient1554);fill-opacity:1;stroke-width:1.10858"
         id="path908" />
      <path
         d="m 135.09825,149.35006 c 0,-1.41899 -1.06424,-1.41899 -1.55202,-1.41899 -0.44343,0 -1.46333,0 -1.50767,1.3303 0,0.35475 -0.0887,1.99545 -0.84252,1.99545 -1.24161,0 -1.24161,-2.03979 -1.24161,-4.38999 0,-2.79363 0,-3.14837 -0.39909,-4.16827 -0.53212,-1.28595 -1.55202,-2.21716 -2.17283,-2.70494 2.92666,-1.6407 3.76918,-4.34564 3.76918,-6.16372 0,-3.81352 -3.37009,-7.44967 -8.6026,-7.44967 h -7.84876 c -0.70949,0 -1.77373,0 -1.77373,1.37464 0,1.3303 1.10858,1.3303 1.77373,1.3303 h 1.10858 v 21.68387 h -1.10858 c -0.70949,0 -1.77373,0 -1.77373,1.37464 0,1.3303 1.10858,1.3303 1.77373,1.3303 h 5.27685 c 0.66515,0 1.77374,0 1.77374,-1.3303 0,-1.37464 -1.06424,-1.37464 -1.77374,-1.37464 h -1.10858 v -9.48946 h 3.45878 c 0.84252,0 2.17282,0 3.59181,1.24161 0.97555,0.93121 0.97555,1.90676 0.97555,3.76918 0,2.88231 0,4.21261 0.84252,5.6316 0.75384,1.3303 1.99545,2.03979 3.50312,2.03979 2.79363,0 3.85787,-2.92666 3.85787,-4.6117 z m -7.00624,-15.52016 c 0,2.17282 -1.99545,4.74474 -6.03069,4.74474 h -3.19272 v -9.48947 h 3.19272 c 4.07958,0 6.03069,2.61625 6.03069,4.74473 z"
         style="font-style:normal;font-variant:normal;font-weight:normal;font-stretch:normal;font-family:'Latin Modern Mono';-inkscape-font-specification:'Latin Modern Mono';fill:url(#linearGradient1554);fill-opacity:1;stroke-width:1.10858"
         id="path910" />
    </g>
    <path
       id="rect1458-5"
       style="fill:url(#linearGradient1518);fill-opacity:1;stroke:none;stroke-width:4.33811;stroke-linejoin:round"
       inkscape:transform-center-x="58.667784"
       inkscape:transform-center-y="3.5571369"
       d="m 96.523567,106.66224 c -2.294618,0.0279 -4.579295,0.2411 -6.730765,1.17004 -4.778421,1.92694 -8.72035,6.378 -9.731128,11.54373 -0.679997,3.34882 -0.291423,6.78721 -0.386768,10.17724 9.86e-4,1.66459 0.002,3.32917 0.003,4.99375 10.277525,-9.2904 20.551024,-18.58525 30.820304,-27.88476 -4.65855,-0.0162 -9.31642,0.0298 -13.974601,0 z" />
  </g>
</svg>
